<?xml version="1.0" encoding="UTF-8"?>
<!DOCTYPE svg
PUBLIC "-//W3C//DTD SVG 1.1//EN"
       "http://www.w3.org/Graphics/SVG/1.1/DTD/svg11.dtd">
<svg viewBox="33 5 1097 598" width="1064px" height="593px" xmlns="http://www.w3.org/2000/svg" version="1.1">
   <line x1="309" y1="114" x2="299" y2="114" style="stroke:#333;stroke-width:1;"/>
   <line x1="108" y1="55" x2="98" y2="55" style="stroke:#333;stroke-width:1;"/>
   <line x1="299" y1="114" x2="108" y2="55" style="stroke:#333;stroke-width:1;"/>
   <line x1="301.5" y1="114" x2="305.03553390593" y2="117.53553390593" style="stroke:#333;stroke-width:2;"/>
   <line x1="301.5" y1="114" x2="305.03553390593" y2="110.46446609407" style="stroke:#333;stroke-width:2;"/>
   <line x1="103" y1="55" x2="106.53553390593" y2="58.535533905933" style="stroke:#333;stroke-width:2;"/>
   <line x1="103" y1="55" x2="106.53553390593" y2="51.464466094067" style="stroke:#333;stroke-width:2;"/>
   <line x1="658" y1="172" x2="648" y2="172" style="stroke:#333;stroke-width:1;"/>
   <line x1="494" y1="446" x2="484" y2="446" style="stroke:#333;stroke-width:1;"/>
   <line x1="648" y1="172" x2="494" y2="446" style="stroke:#333;stroke-width:1;"/>
   <line x1="650.5" y1="172" x2="654.03553390593" y2="175.53553390593" style="stroke:#333;stroke-width:2;"/>
   <line x1="650.5" y1="172" x2="654.03553390593" y2="168.46446609407" style="stroke:#333;stroke-width:2;"/>
   <line x1="489" y1="446" x2="492.53553390593" y2="449.53553390593" style="stroke:#333;stroke-width:2;"/>
   <line x1="489" y1="446" x2="492.53553390593" y2="442.46446609407" style="stroke:#333;stroke-width:2;"/>
   <line x1="813" y1="272" x2="823" y2="272" style="stroke:#cb0;stroke-width:1;"/>
   <line x1="970" y1="50" x2="980" y2="50" style="stroke:#cb0;stroke-width:1;"/>
   <line x1="823" y1="272" x2="970" y2="50" style="stroke:#cb0;stroke-width:1;"/>
   <line x1="820.5" y1="272" x2="816.96446609407" y2="275.53553390593" style="stroke:#cb0;stroke-width:2;"/>
   <line x1="820.5" y1="272" x2="816.96446609407" y2="268.46446609407" style="stroke:#cb0;stroke-width:2;"/>
   <line x1="975" y1="50" x2="971.46446609407" y2="53.535533905933" style="stroke:#cb0;stroke-width:2;"/>
   <line x1="975" y1="50" x2="971.46446609407" y2="46.464466094067" style="stroke:#cb0;stroke-width:2;"/>
   <line x1="658" y1="152" x2="648" y2="152" style="stroke:#cb0;stroke-width:1;"/>
   <line x1="410" y1="54" x2="400" y2="54" style="stroke:#cb0;stroke-width:1;"/>
   <line x1="648" y1="152" x2="410" y2="54" style="stroke:#cb0;stroke-width:1;"/>
   <line x1="650.5" y1="152" x2="654.03553390593" y2="155.53553390593" style="stroke:#cb0;stroke-width:2;"/>
   <line x1="650.5" y1="152" x2="654.03553390593" y2="148.46446609407" style="stroke:#cb0;stroke-width:2;"/>
   <line x1="405" y1="54" x2="408.53553390593" y2="57.535533905933" style="stroke:#cb0;stroke-width:2;"/>
   <line x1="405" y1="54" x2="408.53553390593" y2="50.464466094067" style="stroke:#cb0;stroke-width:2;"/>
   <line x1="813" y1="232" x2="823" y2="232" style="stroke:#cb0;stroke-width:1;"/>
   <line x1="969" y1="331" x2="979" y2="331" style="stroke:#cb0;stroke-width:1;"/>
   <line x1="823" y1="232" x2="969" y2="331" style="stroke:#cb0;stroke-width:1;"/>
   <line x1="820.5" y1="232" x2="816.96446609407" y2="235.53553390593" style="stroke:#cb0;stroke-width:2;"/>
   <line x1="820.5" y1="232" x2="816.96446609407" y2="228.46446609407" style="stroke:#cb0;stroke-width:2;"/>
   <line x1="974" y1="331" x2="970.46446609407" y2="334.53553390593" style="stroke:#cb0;stroke-width:2;"/>
   <line x1="974" y1="331" x2="970.46446609407" y2="327.46446609407" style="stroke:#cb0;stroke-width:2;"/>
   <line x1="813" y1="252" x2="823" y2="252" style="stroke:#0bf;stroke-width:1;"/>
   <line x1="970" y1="50" x2="980" y2="50" style="stroke:#0bf;stroke-width:1;"/>
   <line x1="823" y1="252" x2="970" y2="50" style="stroke:#0bf;stroke-width:1;"/>
   <line x1="820.5" y1="252" x2="816.96446609407" y2="255.53553390593" style="stroke:#0bf;stroke-width:2;"/>
   <line x1="820.5" y1="252" x2="816.96446609407" y2="248.46446609407" style="stroke:#0bf;stroke-width:2;"/>
   <line x1="975" y1="50" x2="971.46446609407" y2="53.535533905933" style="stroke:#0bf;stroke-width:2;"/>
   <line x1="975" y1="50" x2="971.46446609407" y2="46.464466094067" style="stroke:#0bf;stroke-width:2;"/>
   <line x1="813" y1="412" x2="823" y2="412" style="stroke:#0b0;stroke-width:1;"/>
   <line x1="970" y1="50" x2="980" y2="50" style="stroke:#0b0;stroke-width:1;"/>
   <line x1="823" y1="412" x2="970" y2="50" style="stroke:#0b0;stroke-width:1;"/>
   <line x1="820.5" y1="412" x2="816.96446609407" y2="415.53553390593" style="stroke:#0b0;stroke-width:2;"/>
   <line x1="820.5" y1="412" x2="816.96446609407" y2="408.46446609407" style="stroke:#0b0;stroke-width:2;"/>
   <line x1="975" y1="50" x2="971.46446609407" y2="53.535533905933" style="stroke:#0b0;stroke-width:2;"/>
   <line x1="975" y1="50" x2="971.46446609407" y2="46.464466094067" style="stroke:#0b0;stroke-width:2;"/>
   <line x1="658" y1="192" x2="648" y2="192" style="stroke:#0b0;stroke-width:1;"/>
   <line x1="646" y1="533" x2="656" y2="533" style="stroke:#0b0;stroke-width:1;"/>
   <line x1="648" y1="192" x2="646" y2="533" style="stroke:#0b0;stroke-width:1;"/>
   <line x1="650.5" y1="192" x2="654.03553390593" y2="195.53553390593" style="stroke:#0b0;stroke-width:2;"/>
   <line x1="650.5" y1="192" x2="654.03553390593" y2="188.46446609407" style="stroke:#0b0;stroke-width:2;"/>
   <line x1="651" y1="533" x2="647.46446609407" y2="536.53553390593" style="stroke:#0b0;stroke-width:2;"/>
   <line x1="651" y1="533" x2="647.46446609407" y2="529.46446609407" style="stroke:#0b0;stroke-width:2;"/>
   <line x1="656" y1="573" x2="646" y2="573" style="stroke:#bbb;stroke-width:1;"/>
   <line x1="494" y1="446" x2="484" y2="446" style="stroke:#bbb;stroke-width:1;"/>
   <line x1="646" y1="573" x2="494" y2="446" style="stroke:#bbb;stroke-width:1;"/>
   <line x1="648.5" y1="573" x2="652.03553390593" y2="576.53553390593" style="stroke:#bbb;stroke-width:2;"/>
   <line x1="648.5" y1="573" x2="652.03553390593" y2="569.46446609407" style="stroke:#bbb;stroke-width:2;"/>
   <line x1="489" y1="446" x2="492.53553390593" y2="449.53553390593" style="stroke:#bbb;stroke-width:2;"/>
   <line x1="489" y1="446" x2="492.53553390593" y2="442.46446609407" style="stroke:#bbb;stroke-width:2;"/>
   <line x1="1048" y1="547" x2="1058" y2="547" style="stroke:#0bf;stroke-width:1;"/>
   <line x1="1092" y1="50" x2="1082" y2="50" style="stroke:#0bf;stroke-width:1;"/>
   <line x1="1058" y1="547" x2="1092" y2="50" style="stroke:#0bf;stroke-width:1;"/>
   <line x1="1055.5" y1="547" x2="1051.9644660941" y2="550.53553390593" style="stroke:#0bf;stroke-width:2;"/>
   <line x1="1055.5" y1="547" x2="1051.9644660941" y2="543.46446609407" style="stroke:#0bf;stroke-width:2;"/>
   <line x1="1087" y1="50" x2="1090.5355339059" y2="53.535533905933" style="stroke:#0bf;stroke-width:2;"/>
   <line x1="1087" y1="50" x2="1090.5355339059" y2="46.464466094067" style="stroke:#0bf;stroke-width:2;"/>
   <line x1="934" y1="567" x2="924" y2="567" style="stroke:#bbb;stroke-width:1;"/>
   <line x1="732" y1="533" x2="722" y2="533" style="stroke:#bbb;stroke-width:1;"/>
   <line x1="924" y1="567" x2="732" y2="533" style="stroke:#bbb;stroke-width:1;"/>
   <line x1="926.5" y1="567" x2="930.03553390593" y2="570.53553390593" style="stroke:#bbb;stroke-width:2;"/>
   <line x1="926.5" y1="567" x2="930.03553390593" y2="563.46446609407" style="stroke:#bbb;stroke-width:2;"/>
   <line x1="727" y1="533" x2="730.53553390593" y2="536.53553390593" style="stroke:#bbb;stroke-width:2;"/>
   <line x1="727" y1="533" x2="730.53553390593" y2="529.46446609407" style="stroke:#bbb;stroke-width:2;"/>
   <line x1="979" y1="391" x2="969" y2="391" style="stroke:#bbb;stroke-width:1;"/>
   <line x1="970" y1="236" x2="980" y2="236" style="stroke:#bbb;stroke-width:1;"/>
   <line x1="969" y1="391" x2="970" y2="236" style="stroke:#bbb;stroke-width:1;"/>
   <line x1="971.5" y1="391" x2="975.03553390593" y2="394.53553390593" style="stroke:#bbb;stroke-width:2;"/>
   <line x1="971.5" y1="391" x2="975.03553390593" y2="387.46446609407" style="stroke:#bbb;stroke-width:2;"/>
   <line x1="975" y1="236" x2="971.46446609407" y2="239.53553390593" style="stroke:#bbb;stroke-width:2;"/>
   <line x1="975" y1="236" x2="971.46446609407" y2="232.46446609407" style="stroke:#bbb;stroke-width:2;"/>
   <line x1="980" y1="150" x2="970" y2="150" style="stroke:#c00;stroke-width:1;"/>
   <line x1="970" y1="236" x2="980" y2="236" style="stroke:#c00;stroke-width:1;"/>
   <line x1="970" y1="150" x2="970" y2="236" style="stroke:#c00;stroke-width:1;"/>
   <line x1="972.5" y1="150" x2="976.03553390593" y2="153.53553390593" style="stroke:#c00;stroke-width:2;"/>
   <line x1="972.5" y1="150" x2="976.03553390593" y2="146.46446609407" style="stroke:#c00;stroke-width:2;"/>
   <line x1="975" y1="236" x2="971.46446609407" y2="239.53553390593" style="stroke:#c00;stroke-width:2;"/>
   <line x1="975" y1="236" x2="971.46446609407" y2="232.46446609407" style="stroke:#c00;stroke-width:2;"/>
   <rect width="144" height="20" x="259" y="322" style="fill:#007;stroke:black;"/>
   <text width="144" height="20" x="264" y="336" style="fill:#fff;" font-family="Arial" font-size="16px"> allowed_external_id</text>
   <rect width="144" height="20" x="259" y="342" style="fill:#aea;stroke:black;"/>
   <text width="144" height="20" x="264" y="356" style="fill:black;" font-family="Arial" font-size="16px">id</text>
   <rect width="144" height="20" x="259" y="362" style="fill:none;stroke:black;"/>
   <text width="144" height="20" x="264" y="376" style="fill:black;" font-family="Arial" font-size="16px">competition_id</text>
   <rect width="91" height="20" x="309" y="24" style="fill:#007;stroke:black;"/>
   <text width="91" height="20" x="314" y="38" style="fill:#fff;" font-family="Arial" font-size="16px"> competition</text>
   <rect width="91" height="20" x="309" y="44" style="fill:#aea;stroke:black;"/>
   <text width="91" height="20" x="314" y="58" style="fill:black;" font-family="Arial" font-size="16px">id</text>
   <rect width="91" height="20" x="309" y="64" style="fill:none;stroke:black;"/>
   <text width="91" height="20" x="314" y="78" style="fill:black;" font-family="Arial" font-size="16px">name</text>
   <rect width="91" height="20" x="309" y="84" style="fill:none;stroke:black;"/>
   <text width="91" height="20" x="314" y="98" style="fill:black;" font-family="Arial" font-size="16px">season</text>
   <rect width="91" height="20" x="309" y="104" style="fill:none;stroke:black;"/>
   <text width="91" height="20" x="314" y="118" style="fill:black;" font-family="Arial" font-size="16px">sport_id</text>
   <rect width="91" height="20" x="309" y="124" style="fill:none;stroke:black;"/>
   <text width="91" height="20" x="314" y="138" style="fill:black;" font-family="Arial" font-size="16px">external_id</text>
   <rect width="64" height="20" x="980" y="206" style="fill:#007;stroke:black;"/>
   <text width="64" height="20" x="985" y="220" style="fill:#fff;" font-family="Arial" font-size="16px"> country</text>
   <rect width="64" height="20" x="980" y="226" style="fill:none;stroke:black;"/>
   <text width="64" height="20" x="985" y="240" style="fill:black;" font-family="Arial" font-size="16px">code</text>
   <rect width="64" height="20" x="980" y="246" style="fill:none;stroke:black;"/>
   <text width="64" height="20" x="985" y="260" style="fill:black;" font-family="Arial" font-size="16px">name</text>
   <rect width="205" height="20" x="52" y="416" style="fill:#007;stroke:black;"/>
   <text width="205" height="20" x="57" y="430" style="fill:#fff;" font-family="Arial" font-size="16px"> doctrine_migration_versions</text>
   <rect width="205" height="20" x="52" y="436" style="fill:none;stroke:black;"/>
   <text width="205" height="20" x="57" y="450" style="fill:black;" font-family="Arial" font-size="16px">version</text>
   <rect width="205" height="20" x="52" y="456" style="fill:none;stroke:black;"/>
   <text width="205" height="20" x="57" y="470" style="fill:black;" font-family="Arial" font-size="16px">executed_at</text>
   <rect width="205" height="20" x="52" y="476" style="fill:none;stroke:black;"/>
   <text width="205" height="20" x="57" y="490" style="fill:black;" font-family="Arial" font-size="16px">execution_time</text>
   <rect width="155" height="20" x="658" y="22" style="fill:#007;stroke:black;"/>
   <text width="155" height="20" x="663" y="36" style="fill:#fff;" font-family="Arial" font-size="16px"> event</text>
   <rect width="155" height="20" x="658" y="42" style="fill:#aea;stroke:black;"/>
   <text width="155" height="20" x="663" y="56" style="fill:black;" font-family="Arial" font-size="16px">id</text>
   <rect width="155" height="20" x="658" y="62" style="fill:none;stroke:black;"/>
   <text width="155" height="20" x="663" y="76" style="fill:black;" font-family="Arial" font-size="16px">match_date</text>
   <rect width="155" height="20" x="658" y="82" style="fill:none;stroke:black;"/>
   <text width="155" height="20" x="663" y="96" style="fill:black;" font-family="Arial" font-size="16px">status</text>
   <rect width="155" height="20" x="658" y="102" style="fill:none;stroke:black;"/>
   <text width="155" height="20" x="663" y="116" style="fill:black;" font-family="Arial" font-size="16px">home_score</text>
   <rect width="155" height="20" x="658" y="122" style="fill:none;stroke:black;"/>
   <text width="155" height="20" x="663" y="136" style="fill:black;" font-family="Arial" font-size="16px">away_score</text>
   <rect width="155" height="20" x="658" y="142" style="fill:none;stroke:black;"/>
   <text width="155" height="20" x="663" y="156" style="fill:black;" font-family="Arial" font-size="16px">competition_id</text>
   <rect width="155" height="20" x="658" y="162" style="fill:none;stroke:black;"/>
   <text width="155" height="20" x="663" y="176" style="fill:black;" font-family="Arial" font-size="16px">stage_id</text>
   <rect width="155" height="20" x="658" y="182" style="fill:none;stroke:black;"/>
   <text width="155" height="20" x="663" y="196" style="fill:black;" font-family="Arial" font-size="16px">group_table_id</text>
   <rect width="155" height="20" x="658" y="202" style="fill:none;stroke:black;"/>
   <text width="155" height="20" x="663" y="216" style="fill:black;" font-family="Arial" font-size="16px">match_time</text>
   <rect width="155" height="20" x="658" y="222" style="fill:none;stroke:black;"/>
   <text width="155" height="20" x="663" y="236" style="fill:black;" font-family="Arial" font-size="16px">stadium_id</text>
   <rect width="155" height="20" x="658" y="242" style="fill:none;stroke:black;"/>
   <text width="155" height="20" x="663" y="256" style="fill:black;" font-family="Arial" font-size="16px">home_team_id</text>
   <rect width="155" height="20" x="658" y="262" style="fill:none;stroke:black;"/>
   <text width="155" height="20" x="663" y="276" style="fill:black;" font-family="Arial" font-size="16px">away_team_id</text>
   <rect width="155" height="20" x="658" y="282" style="fill:none;stroke:black;"/>
   <text width="155" height="20" x="663" y="296" style="fill:black;" font-family="Arial" font-size="16px">message</text>
   <rect width="155" height="20" x="658" y="302" style="fill:none;stroke:black;"/>
   <text width="155" height="20" x="663" y="316" style="fill:black;" font-family="Arial" font-size="16px">goals</text>
   <rect width="155" height="20" x="658" y="322" style="fill:none;stroke:black;"/>
   <text width="155" height="20" x="663" y="336" style="fill:black;" font-family="Arial" font-size="16px">yellow_cards</text>
   <rect width="155" height="20" x="658" y="342" style="fill:none;stroke:black;"/>
   <text width="155" height="20" x="663" y="356" style="fill:black;" font-family="Arial" font-size="16px">second_yellow_cards</text>
   <rect width="155" height="20" x="658" y="362" style="fill:none;stroke:black;"/>
   <text width="155" height="20" x="663" y="376" style="fill:black;" font-family="Arial" font-size="16px">direct_red_cards</text>
   <rect width="155" height="20" x="658" y="382" style="fill:none;stroke:black;"/>
   <text width="155" height="20" x="663" y="396" style="fill:black;" font-family="Arial" font-size="16px">score_by_periods</text>
   <rect width="155" height="20" x="658" y="402" style="fill:none;stroke:black;"/>
   <text width="155" height="20" x="663" y="416" style="fill:black;" font-family="Arial" font-size="16px">winner_team_id</text>
   <rect width="167" height="20" x="271" y="173" style="fill:#007;stroke:black;"/>
   <text width="167" height="20" x="276" y="187" style="fill:#fff;" font-family="Arial" font-size="16px"> external_api</text>
   <rect width="167" height="20" x="271" y="193" style="fill:#aea;stroke:black;"/>
   <text width="167" height="20" x="276" y="207" style="fill:black;" font-family="Arial" font-size="16px">id</text>
   <rect width="167" height="20" x="271" y="213" style="fill:none;stroke:black;"/>
   <text width="167" height="20" x="276" y="227" style="fill:black;" font-family="Arial" font-size="16px">api_name</text>
   <rect width="167" height="20" x="271" y="233" style="fill:none;stroke:black;"/>
   <text width="167" height="20" x="276" y="247" style="fill:black;" font-family="Arial" font-size="16px">competition_id_key</text>
   <rect width="167" height="20" x="271" y="253" style="fill:none;stroke:black;"/>
   <text width="167" height="20" x="276" y="267" style="fill:black;" font-family="Arial" font-size="16px">competition_name_key</text>
   <rect width="167" height="20" x="271" y="273" style="fill:none;stroke:black;"/>
   <text width="167" height="20" x="276" y="287" style="fill:black;" font-family="Arial" font-size="16px">winner_key</text>
   <rect width="66" height="20" x="656" y="503" style="fill:#007;stroke:black;"/>
   <text width="66" height="20" x="661" y="517" style="fill:#fff;" font-family="Arial" font-size="16px"> groups</text>
   <rect width="66" height="20" x="656" y="523" style="fill:#aea;stroke:black;"/>
   <text width="66" height="20" x="661" y="537" style="fill:black;" font-family="Arial" font-size="16px">id</text>
   <rect width="66" height="20" x="656" y="543" style="fill:none;stroke:black;"/>
   <text width="66" height="20" x="661" y="557" style="fill:black;" font-family="Arial" font-size="16px">name</text>
   <rect width="66" height="20" x="656" y="563" style="fill:none;stroke:black;"/>
   <text width="66" height="20" x="661" y="577" style="fill:black;" font-family="Arial" font-size="16px">stage_id</text>
   <rect width="114" height="20" x="934" y="477" style="fill:#007;stroke:black;"/>
   <text width="114" height="20" x="939" y="491" style="fill:#fff;" font-family="Arial" font-size="16px"> group_standing</text>
   <rect width="114" height="20" x="934" y="497" style="fill:#aea;stroke:black;"/>
   <text width="114" height="20" x="939" y="511" style="fill:black;" font-family="Arial" font-size="16px">id</text>
   <rect width="114" height="20" x="934" y="517" style="fill:none;stroke:black;"/>
   <text width="114" height="20" x="939" y="531" style="fill:black;" font-family="Arial" font-size="16px">position</text>
   <rect width="114" height="20" x="934" y="537" style="fill:none;stroke:black;"/>
   <text width="114" height="20" x="939" y="551" style="fill:black;" font-family="Arial" font-size="16px">team_id</text>
   <rect width="114" height="20" x="934" y="557" style="fill:none;stroke:black;"/>
   <text width="114" height="20" x="939" y="571" style="fill:black;" font-family="Arial" font-size="16px">group_id_id</text>
   <rect width="50" height="20" x="48" y="25" style="fill:#007;stroke:black;"/>
   <text width="50" height="20" x="53" y="39" style="fill:#fff;" font-family="Arial" font-size="16px"> sports</text>
   <rect width="50" height="20" x="48" y="45" style="fill:#aea;stroke:black;"/>
   <text width="50" height="20" x="53" y="59" style="fill:black;" font-family="Arial" font-size="16px">id</text>
   <rect width="50" height="20" x="48" y="65" style="fill:none;stroke:black;"/>
   <text width="50" height="20" x="53" y="79" style="fill:black;" font-family="Arial" font-size="16px">name</text>
   <rect width="102" height="20" x="979" y="301" style="fill:#007;stroke:black;"/>
   <text width="102" height="20" x="984" y="315" style="fill:#fff;" font-family="Arial" font-size="16px"> stadium</text>
   <rect width="102" height="20" x="979" y="321" style="fill:#aea;stroke:black;"/>
   <text width="102" height="20" x="984" y="335" style="fill:black;" font-family="Arial" font-size="16px">id</text>
   <rect width="102" height="20" x="979" y="341" style="fill:none;stroke:black;"/>
   <text width="102" height="20" x="984" y="355" style="fill:black;" font-family="Arial" font-size="16px">name</text>
   <rect width="102" height="20" x="979" y="361" style="fill:none;stroke:black;"/>
   <text width="102" height="20" x="984" y="375" style="fill:black;" font-family="Arial" font-size="16px">city</text>
   <rect width="102" height="20" x="979" y="381" style="fill:none;stroke:black;"/>
   <text width="102" height="20" x="984" y="395" style="fill:black;" font-family="Arial" font-size="16px">country_code</text>
   <rect width="84" height="20" x="400" y="416" style="fill:#007;stroke:black;"/>
   <text width="84" height="20" x="405" y="430" style="fill:#fff;" font-family="Arial" font-size="16px"> stage</text>
   <rect width="84" height="20" x="400" y="436" style="fill:#aea;stroke:black;"/>
   <text width="84" height="20" x="405" y="450" style="fill:black;" font-family="Arial" font-size="16px">id</text>
   <rect width="84" height="20" x="400" y="456" style="fill:none;stroke:black;"/>
   <text width="84" height="20" x="405" y="470" style="fill:black;" font-family="Arial" font-size="16px">external_id</text>
   <rect width="84" height="20" x="400" y="476" style="fill:none;stroke:black;"/>
   <text width="84" height="20" x="405" y="490" style="fill:black;" font-family="Arial" font-size="16px">name</text>
   <rect width="84" height="20" x="400" y="496" style="fill:none;stroke:black;"/>
   <text width="84" height="20" x="405" y="510" style="fill:black;" font-family="Arial" font-size="16px">ordering</text>
   <rect width="102" height="20" x="980" y="20" style="fill:#007;stroke:black;"/>
   <text width="102" height="20" x="985" y="34" style="fill:#fff;" font-family="Arial" font-size="16px"> team</text>
   <rect width="102" height="20" x="980" y="40" style="fill:#aea;stroke:black;"/>
   <text width="102" height="20" x="985" y="54" style="fill:black;" font-family="Arial" font-size="16px">id</text>
   <rect width="102" height="20" x="980" y="60" style="fill:none;stroke:black;"/>
   <text width="102" height="20" x="985" y="74" style="fill:black;" font-family="Arial" font-size="16px">name</text>
   <rect width="102" height="20" x="980" y="80" style="fill:none;stroke:black;"/>
   <text width="102" height="20" x="985" y="94" style="fill:black;" font-family="Arial" font-size="16px">official_name</text>
   <rect width="102" height="20" x="980" y="100" style="fill:none;stroke:black;"/>
   <text width="102" height="20" x="985" y="114" style="fill:black;" font-family="Arial" font-size="16px">slug</text>
   <rect width="102" height="20" x="980" y="120" style="fill:none;stroke:black;"/>
   <text width="102" height="20" x="985" y="134" style="fill:black;" font-family="Arial" font-size="16px">abbreviation</text>
   <rect width="102" height="20" x="980" y="140" style="fill:none;stroke:black;"/>
   <text width="102" height="20" x="985" y="154" style="fill:black;" font-family="Arial" font-size="16px">country_code</text>
</svg>
