<?xml version="1.0" encoding="UTF-8"?>
<!DOCTYPE svg
PUBLIC "-//W3C//DTD SVG 1.1//EN"
       "http://www.w3.org/Graphics/SVG/1.1/DTD/svg11.dtd">
<svg viewBox="33 10 1121 598" width="1088px" height="588px" xmlns="http://www.w3.org/2000/svg" version="1.1">
   <line x1="329" y1="118" x2="319" y2="118" style="stroke:#0bf;stroke-width:1;"/>
   <line x1="122" y1="60" x2="112" y2="60" style="stroke:#0bf;stroke-width:1;"/>
   <line x1="319" y1="118" x2="122" y2="60" style="stroke:#0bf;stroke-width:1;"/>
   <line x1="321.5" y1="118" x2="325.03553390593" y2="121.53553390593" style="stroke:#0bf;stroke-width:2;"/>
   <line x1="321.5" y1="118" x2="325.03553390593" y2="114.46446609407" style="stroke:#0bf;stroke-width:2;"/>
   <line x1="117" y1="60" x2="120.53553390593" y2="63.535533905933" style="stroke:#0bf;stroke-width:2;"/>
   <line x1="117" y1="60" x2="120.53553390593" y2="56.464466094067" style="stroke:#0bf;stroke-width:2;"/>
   <line x1="816" y1="415" x2="826" y2="415" style="stroke:#bbb;stroke-width:1;"/>
   <line x1="985" y1="300" x2="995" y2="300" style="stroke:#bbb;stroke-width:1;"/>
   <line x1="826" y1="415" x2="985" y2="300" style="stroke:#bbb;stroke-width:1;"/>
   <line x1="823.5" y1="415" x2="819.96446609407" y2="418.53553390593" style="stroke:#bbb;stroke-width:2;"/>
   <line x1="823.5" y1="415" x2="819.96446609407" y2="411.46446609407" style="stroke:#bbb;stroke-width:2;"/>
   <line x1="990" y1="300" x2="986.46446609407" y2="303.53553390593" style="stroke:#bbb;stroke-width:2;"/>
   <line x1="990" y1="300" x2="986.46446609407" y2="296.46446609407" style="stroke:#bbb;stroke-width:2;"/>
   <line x1="816" y1="355" x2="826" y2="355" style="stroke:#333;stroke-width:1;"/>
   <line x1="989" y1="55" x2="999" y2="55" style="stroke:#333;stroke-width:1;"/>
   <line x1="826" y1="355" x2="989" y2="55" style="stroke:#333;stroke-width:1;"/>
   <line x1="823.5" y1="355" x2="819.96446609407" y2="358.53553390593" style="stroke:#333;stroke-width:2;"/>
   <line x1="823.5" y1="355" x2="819.96446609407" y2="351.46446609407" style="stroke:#333;stroke-width:2;"/>
   <line x1="994" y1="55" x2="990.46446609407" y2="58.535533905933" style="stroke:#333;stroke-width:2;"/>
   <line x1="994" y1="55" x2="990.46446609407" y2="51.464466094067" style="stroke:#333;stroke-width:2;"/>
   <line x1="816" y1="395" x2="826" y2="395" style="stroke:#0bf;stroke-width:1;"/>
   <line x1="985" y1="300" x2="995" y2="300" style="stroke:#0bf;stroke-width:1;"/>
   <line x1="826" y1="395" x2="985" y2="300" style="stroke:#0bf;stroke-width:1;"/>
   <line x1="823.5" y1="395" x2="819.96446609407" y2="398.53553390593" style="stroke:#0bf;stroke-width:2;"/>
   <line x1="823.5" y1="395" x2="819.96446609407" y2="391.46446609407" style="stroke:#0bf;stroke-width:2;"/>
   <line x1="990" y1="300" x2="986.46446609407" y2="303.53553390593" style="stroke:#0bf;stroke-width:2;"/>
   <line x1="990" y1="300" x2="986.46446609407" y2="296.46446609407" style="stroke:#0bf;stroke-width:2;"/>
   <line x1="661" y1="155" x2="651" y2="155" style="stroke:#c00;stroke-width:1;"/>
   <line x1="430" y1="58" x2="420" y2="58" style="stroke:#c00;stroke-width:1;"/>
   <line x1="651" y1="155" x2="430" y2="58" style="stroke:#c00;stroke-width:1;"/>
   <line x1="653.5" y1="155" x2="657.03553390593" y2="158.53553390593" style="stroke:#c00;stroke-width:2;"/>
   <line x1="653.5" y1="155" x2="657.03553390593" y2="151.46446609407" style="stroke:#c00;stroke-width:2;"/>
   <line x1="425" y1="58" x2="428.53553390593" y2="61.535533905933" style="stroke:#c00;stroke-width:2;"/>
   <line x1="425" y1="58" x2="428.53553390593" y2="54.464466094067" style="stroke:#c00;stroke-width:2;"/>
   <line x1="661" y1="315" x2="651" y2="315" style="stroke:#0b0;stroke-width:1;"/>
   <line x1="498" y1="416" x2="488" y2="416" style="stroke:#0b0;stroke-width:1;"/>
   <line x1="651" y1="315" x2="498" y2="416" style="stroke:#0b0;stroke-width:1;"/>
   <line x1="653.5" y1="315" x2="657.03553390593" y2="318.53553390593" style="stroke:#0b0;stroke-width:2;"/>
   <line x1="653.5" y1="315" x2="657.03553390593" y2="311.46446609407" style="stroke:#0b0;stroke-width:2;"/>
   <line x1="493" y1="416" x2="496.53553390593" y2="419.53553390593" style="stroke:#0b0;stroke-width:2;"/>
   <line x1="493" y1="416" x2="496.53553390593" y2="412.46446609407" style="stroke:#0b0;stroke-width:2;"/>
   <line x1="816" y1="375" x2="826" y2="375" style="stroke:#0bf;stroke-width:1;"/>
   <line x1="985" y1="300" x2="995" y2="300" style="stroke:#0bf;stroke-width:1;"/>
   <line x1="826" y1="375" x2="985" y2="300" style="stroke:#0bf;stroke-width:1;"/>
   <line x1="823.5" y1="375" x2="819.96446609407" y2="378.53553390593" style="stroke:#0bf;stroke-width:2;"/>
   <line x1="823.5" y1="375" x2="819.96446609407" y2="371.46446609407" style="stroke:#0bf;stroke-width:2;"/>
   <line x1="990" y1="300" x2="986.46446609407" y2="303.53553390593" style="stroke:#0bf;stroke-width:2;"/>
   <line x1="990" y1="300" x2="986.46446609407" y2="296.46446609407" style="stroke:#0bf;stroke-width:2;"/>
   <line x1="661" y1="335" x2="651" y2="335" style="stroke:#c00;stroke-width:1;"/>
   <line x1="649" y1="533" x2="659" y2="533" style="stroke:#c00;stroke-width:1;"/>
   <line x1="651" y1="335" x2="649" y2="533" style="stroke:#c00;stroke-width:1;"/>
   <line x1="653.5" y1="335" x2="657.03553390593" y2="338.53553390593" style="stroke:#c00;stroke-width:2;"/>
   <line x1="653.5" y1="335" x2="657.03553390593" y2="331.46446609407" style="stroke:#c00;stroke-width:2;"/>
   <line x1="654" y1="533" x2="650.46446609407" y2="536.53553390593" style="stroke:#c00;stroke-width:2;"/>
   <line x1="654" y1="533" x2="650.46446609407" y2="529.46446609407" style="stroke:#c00;stroke-width:2;"/>
   <line x1="659" y1="573" x2="649" y2="573" style="stroke:#333;stroke-width:1;"/>
   <line x1="498" y1="416" x2="488" y2="416" style="stroke:#333;stroke-width:1;"/>
   <line x1="649" y1="573" x2="498" y2="416" style="stroke:#333;stroke-width:1;"/>
   <line x1="651.5" y1="573" x2="655.03553390593" y2="576.53553390593" style="stroke:#333;stroke-width:2;"/>
   <line x1="651.5" y1="573" x2="655.03553390593" y2="569.46446609407" style="stroke:#333;stroke-width:2;"/>
   <line x1="493" y1="416" x2="496.53553390593" y2="419.53553390593" style="stroke:#333;stroke-width:2;"/>
   <line x1="493" y1="416" x2="496.53553390593" y2="412.46446609407" style="stroke:#333;stroke-width:2;"/>
   <line x1="1101" y1="524" x2="1111" y2="524" style="stroke:#bbb;stroke-width:1;"/>
   <line x1="1112" y1="300" x2="1102" y2="300" style="stroke:#bbb;stroke-width:1;"/>
   <line x1="1111" y1="524" x2="1112" y2="300" style="stroke:#bbb;stroke-width:1;"/>
   <line x1="1108.5" y1="524" x2="1104.9644660941" y2="527.53553390593" style="stroke:#bbb;stroke-width:2;"/>
   <line x1="1108.5" y1="524" x2="1104.9644660941" y2="520.46446609407" style="stroke:#bbb;stroke-width:2;"/>
   <line x1="1107" y1="300" x2="1110.5355339059" y2="303.53553390593" style="stroke:#bbb;stroke-width:2;"/>
   <line x1="1107" y1="300" x2="1110.5355339059" y2="296.46446609407" style="stroke:#bbb;stroke-width:2;"/>
   <line x1="986" y1="544" x2="976" y2="544" style="stroke:#0b0;stroke-width:1;"/>
   <line x1="740" y1="533" x2="730" y2="533" style="stroke:#0b0;stroke-width:1;"/>
   <line x1="976" y1="544" x2="740" y2="533" style="stroke:#0b0;stroke-width:1;"/>
   <line x1="978.5" y1="544" x2="982.03553390593" y2="547.53553390593" style="stroke:#0b0;stroke-width:2;"/>
   <line x1="978.5" y1="544" x2="982.03553390593" y2="540.46446609407" style="stroke:#0b0;stroke-width:2;"/>
   <line x1="735" y1="533" x2="738.53553390593" y2="536.53553390593" style="stroke:#0b0;stroke-width:2;"/>
   <line x1="735" y1="533" x2="738.53553390593" y2="529.46446609407" style="stroke:#0b0;stroke-width:2;"/>
   <line x1="999" y1="115" x2="989" y2="115" style="stroke:#0bf;stroke-width:1;"/>
   <line x1="991" y1="199" x2="1001" y2="199" style="stroke:#0bf;stroke-width:1;"/>
   <line x1="989" y1="115" x2="991" y2="199" style="stroke:#0bf;stroke-width:1;"/>
   <line x1="991.5" y1="115" x2="995.03553390593" y2="118.53553390593" style="stroke:#0bf;stroke-width:2;"/>
   <line x1="991.5" y1="115" x2="995.03553390593" y2="111.46446609407" style="stroke:#0bf;stroke-width:2;"/>
   <line x1="996" y1="199" x2="992.46446609407" y2="202.53553390593" style="stroke:#0bf;stroke-width:2;"/>
   <line x1="996" y1="199" x2="992.46446609407" y2="195.46446609407" style="stroke:#0bf;stroke-width:2;"/>
   <line x1="995" y1="400" x2="985" y2="400" style="stroke:#0b0;stroke-width:1;"/>
   <line x1="991" y1="199" x2="1001" y2="199" style="stroke:#0b0;stroke-width:1;"/>
   <line x1="985" y1="400" x2="991" y2="199" style="stroke:#0b0;stroke-width:1;"/>
   <line x1="987.5" y1="400" x2="991.03553390593" y2="403.53553390593" style="stroke:#0b0;stroke-width:2;"/>
   <line x1="987.5" y1="400" x2="991.03553390593" y2="396.46446609407" style="stroke:#0b0;stroke-width:2;"/>
   <line x1="996" y1="199" x2="992.46446609407" y2="202.53553390593" style="stroke:#0b0;stroke-width:2;"/>
   <line x1="996" y1="199" x2="992.46446609407" y2="195.46446609407" style="stroke:#0b0;stroke-width:2;"/>
   <rect width="144" height="20" x="50" y="202" style="fill:#007;stroke:black;"/>
   <text width="144" height="20" x="55" y="216" style="fill:#fff;" font-family="Arial" font-size="16px"> allowed_external_id</text>
   <rect width="144" height="20" x="50" y="222" style="fill:#aea;stroke:black;"/>
   <text width="144" height="20" x="55" y="236" style="fill:black;" font-family="Arial" font-size="16px">id</text>
   <rect width="144" height="20" x="50" y="242" style="fill:none;stroke:black;"/>
   <text width="144" height="20" x="55" y="256" style="fill:black;" font-family="Arial" font-size="16px">competition_id</text>
   <rect width="91" height="20" x="329" y="28" style="fill:#007;stroke:black;"/>
   <text width="91" height="20" x="334" y="42" style="fill:#fff;" font-family="Arial" font-size="16px"> competition</text>
   <rect width="91" height="20" x="329" y="48" style="fill:#aea;stroke:black;"/>
   <text width="91" height="20" x="334" y="62" style="fill:black;" font-family="Arial" font-size="16px">id</text>
   <rect width="91" height="20" x="329" y="68" style="fill:none;stroke:black;"/>
   <text width="91" height="20" x="334" y="82" style="fill:black;" font-family="Arial" font-size="16px">name</text>
   <rect width="91" height="20" x="329" y="88" style="fill:none;stroke:black;"/>
   <text width="91" height="20" x="334" y="102" style="fill:black;" font-family="Arial" font-size="16px">season</text>
   <rect width="91" height="20" x="329" y="108" style="fill:none;stroke:black;"/>
   <text width="91" height="20" x="334" y="122" style="fill:black;" font-family="Arial" font-size="16px">_sport_id</text>
   <rect width="91" height="20" x="329" y="128" style="fill:none;stroke:black;"/>
   <text width="91" height="20" x="334" y="142" style="fill:black;" font-family="Arial" font-size="16px">external_id</text>
   <rect width="64" height="20" x="1001" y="169" style="fill:#007;stroke:black;"/>
   <text width="64" height="20" x="1006" y="183" style="fill:#fff;" font-family="Arial" font-size="16px"> country</text>
   <rect width="64" height="20" x="1001" y="189" style="fill:none;stroke:black;"/>
   <text width="64" height="20" x="1006" y="203" style="fill:black;" font-family="Arial" font-size="16px">code</text>
   <rect width="64" height="20" x="1001" y="209" style="fill:none;stroke:black;"/>
   <text width="64" height="20" x="1006" y="223" style="fill:black;" font-family="Arial" font-size="16px">name</text>
   <rect width="205" height="20" x="48" y="382" style="fill:#007;stroke:black;"/>
   <text width="205" height="20" x="53" y="396" style="fill:#fff;" font-family="Arial" font-size="16px"> doctrine_migration_versions</text>
   <rect width="205" height="20" x="48" y="402" style="fill:none;stroke:black;"/>
   <text width="205" height="20" x="53" y="416" style="fill:black;" font-family="Arial" font-size="16px">version</text>
   <rect width="205" height="20" x="48" y="422" style="fill:none;stroke:black;"/>
   <text width="205" height="20" x="53" y="436" style="fill:black;" font-family="Arial" font-size="16px">executed_at</text>
   <rect width="205" height="20" x="48" y="442" style="fill:none;stroke:black;"/>
   <text width="205" height="20" x="53" y="456" style="fill:black;" font-family="Arial" font-size="16px">execution_time</text>
   <rect width="155" height="20" x="661" y="25" style="fill:#007;stroke:black;"/>
   <text width="155" height="20" x="666" y="39" style="fill:#fff;" font-family="Arial" font-size="16px"> event</text>
   <rect width="155" height="20" x="661" y="45" style="fill:#aea;stroke:black;"/>
   <text width="155" height="20" x="666" y="59" style="fill:black;" font-family="Arial" font-size="16px">id</text>
   <rect width="155" height="20" x="661" y="65" style="fill:none;stroke:black;"/>
   <text width="155" height="20" x="666" y="79" style="fill:black;" font-family="Arial" font-size="16px">match_date</text>
   <rect width="155" height="20" x="661" y="85" style="fill:none;stroke:black;"/>
   <text width="155" height="20" x="666" y="99" style="fill:black;" font-family="Arial" font-size="16px">status</text>
   <rect width="155" height="20" x="661" y="105" style="fill:none;stroke:black;"/>
   <text width="155" height="20" x="666" y="119" style="fill:black;" font-family="Arial" font-size="16px">home_score</text>
   <rect width="155" height="20" x="661" y="125" style="fill:none;stroke:black;"/>
   <text width="155" height="20" x="666" y="139" style="fill:black;" font-family="Arial" font-size="16px">away_score</text>
   <rect width="155" height="20" x="661" y="145" style="fill:none;stroke:black;"/>
   <text width="155" height="20" x="666" y="159" style="fill:black;" font-family="Arial" font-size="16px">_competition_id</text>
   <rect width="155" height="20" x="661" y="165" style="fill:none;stroke:black;"/>
   <text width="155" height="20" x="666" y="179" style="fill:black;" font-family="Arial" font-size="16px">match_time</text>
   <rect width="155" height="20" x="661" y="185" style="fill:none;stroke:black;"/>
   <text width="155" height="20" x="666" y="199" style="fill:black;" font-family="Arial" font-size="16px">message</text>
   <rect width="155" height="20" x="661" y="205" style="fill:none;stroke:black;"/>
   <text width="155" height="20" x="666" y="219" style="fill:black;" font-family="Arial" font-size="16px">goals</text>
   <rect width="155" height="20" x="661" y="225" style="fill:none;stroke:black;"/>
   <text width="155" height="20" x="666" y="239" style="fill:black;" font-family="Arial" font-size="16px">yellow_cards</text>
   <rect width="155" height="20" x="661" y="245" style="fill:none;stroke:black;"/>
   <text width="155" height="20" x="666" y="259" style="fill:black;" font-family="Arial" font-size="16px">second_yellow_cards</text>
   <rect width="155" height="20" x="661" y="265" style="fill:none;stroke:black;"/>
   <text width="155" height="20" x="666" y="279" style="fill:black;" font-family="Arial" font-size="16px">direct_red_cards</text>
   <rect width="155" height="20" x="661" y="285" style="fill:none;stroke:black;"/>
   <text width="155" height="20" x="666" y="299" style="fill:black;" font-family="Arial" font-size="16px">score_by_periods</text>
   <rect width="155" height="20" x="661" y="305" style="fill:none;stroke:black;"/>
   <text width="155" height="20" x="666" y="319" style="fill:black;" font-family="Arial" font-size="16px">_stage_id</text>
   <rect width="155" height="20" x="661" y="325" style="fill:none;stroke:black;"/>
   <text width="155" height="20" x="666" y="339" style="fill:black;" font-family="Arial" font-size="16px">_group_id</text>
   <rect width="155" height="20" x="661" y="345" style="fill:none;stroke:black;"/>
   <text width="155" height="20" x="666" y="359" style="fill:black;" font-family="Arial" font-size="16px">_stadium_id</text>
   <rect width="155" height="20" x="661" y="365" style="fill:none;stroke:black;"/>
   <text width="155" height="20" x="666" y="379" style="fill:black;" font-family="Arial" font-size="16px">_home_team_id</text>
   <rect width="155" height="20" x="661" y="385" style="fill:none;stroke:black;"/>
   <text width="155" height="20" x="666" y="399" style="fill:black;" font-family="Arial" font-size="16px">_away_team_id</text>
   <rect width="155" height="20" x="661" y="405" style="fill:none;stroke:black;"/>
   <text width="155" height="20" x="666" y="419" style="fill:black;" font-family="Arial" font-size="16px">_winner_team_id</text>
   <rect width="167" height="20" x="325" y="203" style="fill:#007;stroke:black;"/>
   <text width="167" height="20" x="330" y="217" style="fill:#fff;" font-family="Arial" font-size="16px"> external_api</text>
   <rect width="167" height="20" x="325" y="223" style="fill:#aea;stroke:black;"/>
   <text width="167" height="20" x="330" y="237" style="fill:black;" font-family="Arial" font-size="16px">id</text>
   <rect width="167" height="20" x="325" y="243" style="fill:none;stroke:black;"/>
   <text width="167" height="20" x="330" y="257" style="fill:black;" font-family="Arial" font-size="16px">api_name</text>
   <rect width="167" height="20" x="325" y="263" style="fill:none;stroke:black;"/>
   <text width="167" height="20" x="330" y="277" style="fill:black;" font-family="Arial" font-size="16px">competition_id_key</text>
   <rect width="167" height="20" x="325" y="283" style="fill:none;stroke:black;"/>
   <text width="167" height="20" x="330" y="297" style="fill:black;" font-family="Arial" font-size="16px">competition_name_key</text>
   <rect width="167" height="20" x="325" y="303" style="fill:none;stroke:black;"/>
   <text width="167" height="20" x="330" y="317" style="fill:black;" font-family="Arial" font-size="16px">winner_key</text>
   <rect width="71" height="20" x="659" y="503" style="fill:#007;stroke:black;"/>
   <text width="71" height="20" x="664" y="517" style="fill:#fff;" font-family="Arial" font-size="16px"> groups</text>
   <rect width="71" height="20" x="659" y="523" style="fill:#aea;stroke:black;"/>
   <text width="71" height="20" x="664" y="537" style="fill:black;" font-family="Arial" font-size="16px">id</text>
   <rect width="71" height="20" x="659" y="543" style="fill:none;stroke:black;"/>
   <text width="71" height="20" x="664" y="557" style="fill:black;" font-family="Arial" font-size="16px">name</text>
   <rect width="71" height="20" x="659" y="563" style="fill:none;stroke:black;"/>
   <text width="71" height="20" x="664" y="577" style="fill:black;" font-family="Arial" font-size="16px">_stage_id</text>
   <rect width="115" height="20" x="986" y="454" style="fill:#007;stroke:black;"/>
   <text width="115" height="20" x="991" y="468" style="fill:#fff;" font-family="Arial" font-size="16px"> group_standing</text>
   <rect width="115" height="20" x="986" y="474" style="fill:#aea;stroke:black;"/>
   <text width="115" height="20" x="991" y="488" style="fill:black;" font-family="Arial" font-size="16px">id</text>
   <rect width="115" height="20" x="986" y="494" style="fill:none;stroke:black;"/>
   <text width="115" height="20" x="991" y="508" style="fill:black;" font-family="Arial" font-size="16px">position</text>
   <rect width="115" height="20" x="986" y="514" style="fill:none;stroke:black;"/>
   <text width="115" height="20" x="991" y="528" style="fill:black;" font-family="Arial" font-size="16px">_team_id</text>
   <rect width="115" height="20" x="986" y="534" style="fill:none;stroke:black;"/>
   <text width="115" height="20" x="991" y="548" style="fill:black;" font-family="Arial" font-size="16px">_group_id</text>
   <rect width="50" height="20" x="62" y="30" style="fill:#007;stroke:black;"/>
   <text width="50" height="20" x="67" y="44" style="fill:#fff;" font-family="Arial" font-size="16px"> sports</text>
   <rect width="50" height="20" x="62" y="50" style="fill:#aea;stroke:black;"/>
   <text width="50" height="20" x="67" y="64" style="fill:black;" font-family="Arial" font-size="16px">id</text>
   <rect width="50" height="20" x="62" y="70" style="fill:none;stroke:black;"/>
   <text width="50" height="20" x="67" y="84" style="fill:black;" font-family="Arial" font-size="16px">name</text>
   <rect width="107" height="20" x="999" y="25" style="fill:#007;stroke:black;"/>
   <text width="107" height="20" x="1004" y="39" style="fill:#fff;" font-family="Arial" font-size="16px"> stadium</text>
   <rect width="107" height="20" x="999" y="45" style="fill:#aea;stroke:black;"/>
   <text width="107" height="20" x="1004" y="59" style="fill:black;" font-family="Arial" font-size="16px">id</text>
   <rect width="107" height="20" x="999" y="65" style="fill:none;stroke:black;"/>
   <text width="107" height="20" x="1004" y="79" style="fill:black;" font-family="Arial" font-size="16px">name</text>
   <rect width="107" height="20" x="999" y="85" style="fill:none;stroke:black;"/>
   <text width="107" height="20" x="1004" y="99" style="fill:black;" font-family="Arial" font-size="16px">city</text>
   <rect width="107" height="20" x="999" y="105" style="fill:none;stroke:black;"/>
   <text width="107" height="20" x="1004" y="119" style="fill:black;" font-family="Arial" font-size="16px">_country_code</text>
   <rect width="84" height="20" x="404" y="386" style="fill:#007;stroke:black;"/>
   <text width="84" height="20" x="409" y="400" style="fill:#fff;" font-family="Arial" font-size="16px"> stage</text>
   <rect width="84" height="20" x="404" y="406" style="fill:#aea;stroke:black;"/>
   <text width="84" height="20" x="409" y="420" style="fill:black;" font-family="Arial" font-size="16px">id</text>
   <rect width="84" height="20" x="404" y="426" style="fill:none;stroke:black;"/>
   <text width="84" height="20" x="409" y="440" style="fill:black;" font-family="Arial" font-size="16px">external_id</text>
   <rect width="84" height="20" x="404" y="446" style="fill:none;stroke:black;"/>
   <text width="84" height="20" x="409" y="460" style="fill:black;" font-family="Arial" font-size="16px">name</text>
   <rect width="84" height="20" x="404" y="466" style="fill:none;stroke:black;"/>
   <text width="84" height="20" x="409" y="480" style="fill:black;" font-family="Arial" font-size="16px">ordering</text>
   <rect width="107" height="20" x="995" y="270" style="fill:#007;stroke:black;"/>
   <text width="107" height="20" x="1000" y="284" style="fill:#fff;" font-family="Arial" font-size="16px"> team</text>
   <rect width="107" height="20" x="995" y="290" style="fill:#aea;stroke:black;"/>
   <text width="107" height="20" x="1000" y="304" style="fill:black;" font-family="Arial" font-size="16px">id</text>
   <rect width="107" height="20" x="995" y="310" style="fill:none;stroke:black;"/>
   <text width="107" height="20" x="1000" y="324" style="fill:black;" font-family="Arial" font-size="16px">name</text>
   <rect width="107" height="20" x="995" y="330" style="fill:none;stroke:black;"/>
   <text width="107" height="20" x="1000" y="344" style="fill:black;" font-family="Arial" font-size="16px">official_name</text>
   <rect width="107" height="20" x="995" y="350" style="fill:none;stroke:black;"/>
   <text width="107" height="20" x="1000" y="364" style="fill:black;" font-family="Arial" font-size="16px">slug</text>
   <rect width="107" height="20" x="995" y="370" style="fill:none;stroke:black;"/>
   <text width="107" height="20" x="1000" y="384" style="fill:black;" font-family="Arial" font-size="16px">abbreviation</text>
   <rect width="107" height="20" x="995" y="390" style="fill:none;stroke:black;"/>
   <text width="107" height="20" x="1000" y="404" style="fill:black;" font-family="Arial" font-size="16px">_country_code</text>
</svg>
